<?xml version="1.0" encoding="UTF-8"?>
<!-- Generator: Adobe Illustrator 16.0.0, SVG Export Plug-In . SVG Version: 6.00 Build 0)  -->
<!DOCTYPE svg PUBLIC "-//W3C//DTD SVG 1.1//EN" "http://www.w3.org/Graphics/SVG/1.1/DTD/svg11.dtd">
<svg version="1.1" id="Layer_1" xmlns="http://www.w3.org/2000/svg" xmlns:xlink="http://www.w3.org/1999/xlink" x="0px" y="0px" width="303.33px" height="303.331px" viewBox="104.835 104.335 303.33 303.331" enable-background="new 104.835 104.335 303.33 303.331" xml:space="preserve">
<g id="Layer_2">
	<path fill="#5FC529" d="M363.75,148.75c-59.23-59.221-155.27-59.221-214.5,0c-59.22,59.229-59.22,155.27,0,214.5   c59.23,59.22,155.27,59.22,214.5,0C422.97,304.02,422.97,207.98,363.75,148.75z M318.21,330.31   c-12.25-7.07-78.62-45.31-78.62-45.31H239c0,0,0-110.71,0-126s24-15.84,24,0s0,111.63,0,111.63s52.311,29.689,67.21,38.811   C345.111,318.56,330.46,337.39,318.21,330.31z"/>
</g>
<g id="Layer_7">
	<g id="Layer_9">
	</g>
</g>
</svg>